<svg width="48" height="48" viewBox="0 0 48 48" fill="none" xmlns="http://www.w3.org/2000/svg">
<path d="M0 0H48V48H0V0Z" fill="#323238"/>
<path d="M15.6 29.8V16.16C15.6 16.0667 15.64 16.0133 15.7333 16.0133C15.96 16.0133 16.24 16.0133 16.5466 16C16.8666 15.9867 17.2 15.9867 17.56 15.9733C17.92 15.96 18.3066 15.96 18.72 15.9467C19.1333 15.9333 19.5333 15.9333 19.9333 15.9333C21.0266 15.9333 21.9333 16.0667 22.68 16.3467C23.3466 16.5733 23.96 16.9467 24.4666 17.44C24.8933 17.8667 25.2266 18.3867 25.44 18.96C25.64 19.52 25.7466 20.0933 25.7466 20.6933C25.7466 21.84 25.48 22.7867 24.9466 23.5333C24.4133 24.28 23.6666 24.84 22.8 25.16C21.84 25.5067 20.8133 25.68 19.8 25.6667C19.48 25.6667 19.2666 25.6667 19.1333 25.6533C19 25.64 18.76 25.68 18.5066 25.68V29.84C18.52 29.9333 18.4533 30.0133 18.36 30.0267C18.3466 30.0267 18.3333 30.0267 18.3066 30.0267L15.7466 29.9867C15.6533 29.9733 15.6 29.92 15.6 29.8ZM18.5066 18.6267V23.0667C18.6933 23.08 18.92 23.0533 19.08 23.0533H19.7866C20.3066 23.0667 20.8266 22.9867 21.32 22.84C21.7466 22.72 22.12 22.4667 22.4133 22.1333C22.6933 21.8 22.8266 21.3467 22.8266 20.76C22.84 20.3467 22.7333 19.9333 22.52 19.5733C22.2933 19.2267 21.9733 18.96 21.5866 18.8133C21.0933 18.6133 20.56 18.5333 20.0133 18.5467C19.6666 18.5467 19.36 18.5467 19.1066 18.56C18.9066 18.56 18.7066 18.5867 18.5066 18.6267Z" fill="white"/>
<path d="M28.5333 21.8533H27.2133C27.1066 21.84 27.0666 21.7867 27.0666 21.7067V19.5067C27.0533 19.44 27.1066 19.3733 27.1733 19.36C27.1866 19.36 27.2 19.36 27.2133 19.36H28.5333V19.0533C28.5333 18.6 28.56 18.16 28.64 17.7067C28.7066 17.3333 28.8266 16.9733 28.9866 16.6267C29.2666 16.0533 29.68 15.56 30.2133 15.1867C30.7466 14.8133 31.44 14.6267 32.32 14.6267C32.5333 14.6267 32.7333 14.64 32.9466 14.6533C33.12 14.6667 33.28 14.7067 33.44 14.7733C33.5333 14.8 33.5866 14.8933 33.5866 14.9867V17.1067C33.5866 17.2133 33.5333 17.24 33.4133 17.2133C33.3066 17.2 33.2 17.1867 33.0933 17.1867H32.7733C32.5333 17.1867 32.3066 17.2267 32.0933 17.3333C31.8933 17.44 31.7333 17.6267 31.6666 17.84C31.5333 18.1467 31.4666 18.4667 31.4533 18.8V19.3467H33.2666C33.3466 19.3467 33.4 19.36 33.4266 19.3867C33.4533 19.4267 33.4666 19.4667 33.4533 19.52V21.7067C33.4533 21.8133 33.3866 21.8533 33.2666 21.8533H31.4533V29.7867C31.4533 29.8267 31.44 29.88 31.4266 29.92C31.4 29.96 31.3466 29.9867 31.2666 29.9867H28.72C28.6 29.9867 28.5466 29.92 28.5466 29.8V21.8533H28.5333Z" fill="white"/>
</svg>
