<svg width="24" height="25" viewBox="0 0 24 25" fill="none" xmlns="http://www.w3.org/2000/svg">
<rect width="24" height="25" fill="#323238"/>
<g clip-path="url(#clip0_61385_216)">
<path d="M11.362 18.7499C10.8085 18.7499 10.162 18.7468 9.524 18.7088C8.59053 18.7307 7.68645 18.3682 7.008 17.6999C6.3664 16.9935 6.01836 16.0519 6.0395 15.0796C6 14.3281 6 13.5682 6 12.8333C6 12.7222 6 12.6111 6 12.4999C6 12.3888 6 12.2777 6 12.1666C6 11.4317 6 10.6718 6.0395 9.92077C6.0185 8.94841 6.36651 8.00666 7.008 7.29994C7.68645 6.63172 8.59053 6.26921 9.524 6.29108C10.164 6.25306 10.8085 6.24994 11.362 6.24994H12.6385C13.192 6.24994 13.8385 6.25306 14.477 6.29108C15.4103 6.26906 16.3143 6.63161 16.9925 7.29994C17.634 8.00666 17.982 8.94841 17.961 9.92077C18 10.6718 18 11.4317 18 12.1671C18 12.2782 18 12.3893 18 12.5005C18 12.6116 18 12.7225 18 12.8333C18 13.5682 18 14.3281 17.9605 15.0801C17.9816 16.0524 17.6336 16.994 16.992 17.7005C16.3138 18.3688 15.4098 18.7313 14.4765 18.7093C13.836 18.7473 13.1915 18.7505 12.638 18.7505L11.362 18.7499Z" fill="white"/>
<path d="M14.8031 9.7857C14.9213 9.86799 15.0603 9.91192 15.2025 9.91192L15.203 9.91244C15.3937 9.91216 15.5764 9.83308 15.7111 9.69255C15.8459 9.55203 15.9215 9.36155 15.9215 9.16296C15.9215 9.01483 15.8794 8.87003 15.8003 8.74686C15.7213 8.6237 15.6091 8.5277 15.4777 8.47101C15.3463 8.41433 15.2017 8.39949 15.0623 8.42839C14.9228 8.45729 14.7947 8.52862 14.6941 8.63337C14.5936 8.73811 14.5251 8.87156 14.4973 9.01685C14.4696 9.16213 14.4838 9.31272 14.5383 9.44957C14.5927 9.58643 14.6848 9.7034 14.8031 9.7857Z" fill="#323238"/>
<path fill-rule="evenodd" clip-rule="evenodd" d="M12.0001 15.706C11.3914 15.7059 10.7963 15.5178 10.2902 15.1654C9.78409 14.813 9.38965 14.3123 9.15676 13.7264C8.92387 13.1405 8.86299 12.4959 8.98181 11.8739C9.10063 11.252 9.39383 10.6808 9.82431 10.2324C10.2548 9.78407 10.8032 9.47876 11.4003 9.35509C11.9974 9.23142 12.6162 9.29494 13.1786 9.53763C13.741 9.78032 14.2217 10.1913 14.5599 10.7185C14.8981 11.2458 15.0786 11.8657 15.0786 12.4998C15.0778 13.35 14.7532 14.1652 14.1761 14.7664C13.5989 15.3676 12.8163 15.7052 12.0001 15.706ZM12.0001 10.4167C11.6045 10.4167 11.2178 10.5389 10.8889 10.7678C10.56 10.9967 10.3037 11.3221 10.1523 11.7028C10.0009 12.0835 9.96134 12.5024 10.0385 12.9065C10.1157 13.3106 10.3062 13.6818 10.5859 13.9732C10.8656 14.2645 11.2219 14.463 11.6099 14.5433C11.9979 14.6237 12.4 14.5825 12.7654 14.4248C13.1309 14.2671 13.4433 14.0001 13.663 13.6575C13.8828 13.3149 14.0001 12.9121 14.0001 12.5C14.0001 11.9475 13.7894 11.4176 13.4143 11.0269C13.0392 10.6362 12.5305 10.4167 12.0001 10.4167Z" fill="#323238"/>
</g>
<defs>
<clipPath id="clip0_61385_216">
<rect width="12" height="12.5" fill="white" transform="translate(6 6.24994)"/>
</clipPath>
</defs>
</svg>
